<svg id="图层_1" data-name="图层 1" xmlns="http://www.w3.org/2000/svg" viewBox="0 0 180 180"><defs><style>.cls-1{fill:none;}.cls-2{fill:#040000;}.cls-3{fill:#d98312;}.cls-4{fill:#efea30;}.cls-5{fill:#ee8c1b;}.cls-6{fill:#301b09;}.cls-7{fill:#eedd27;}.cls-8{font-size:6.5px;fill:#231815;font-family:UbuntuMono-Regular, Ubuntu Mono;}</style></defs><title>SACC</title><circle class="cls-1" cx="40.85" cy="137.9" r="3"/><circle class="cls-1" cx="75.72" cy="137.9" r="3"/><path class="cls-2" d="M128,137.81a14.89,14.89,0,0,0,14.91,14.9h6l1.81-7.06h-7.81a7.82,7.82,0,0,1-7.81-7.81,7.82,7.82,0,0,1,7.81-7.82h11.84l1.85-7.12H142.88A14.91,14.91,0,0,0,128,137.81Z"/><path class="cls-2" d="M96,137.81a14.9,14.9,0,0,0,14.91,14.9h6l1.82-7.06H110.9a7.82,7.82,0,0,1-7.8-7.81,7.81,7.81,0,0,1,7.8-7.82h11.85l1.85-7.12H110.88A14.91,14.91,0,0,0,96,137.81Z"/><path class="cls-2" d="M75.93,122.9A14.54,14.54,0,0,0,61.4,137.43v15.28h6.82V137A7.41,7.41,0,1,1,83,137v15.69h7.44V137.43A14.53,14.53,0,0,0,75.93,122.9Z"/><path class="cls-3" d="M75.72,132.15a5.75,5.75,0,1,0,5.75,5.75A5.75,5.75,0,0,0,75.72,132.15Zm0,8.75a3,3,0,1,1,3-3A3,3,0,0,1,75.72,140.9Z"/><path class="cls-2" d="M30.51,127.18a14.61,14.61,0,0,0-4.29,10.34h7.06a7.44,7.44,0,0,1,7.44-7.43H53.47l2.88-7.19H40.85A14.57,14.57,0,0,0,30.51,127.18Z"/><path class="cls-2" d="M41,145.52H28.28l-2.88,7.19H40.9a14.63,14.63,0,0,0,14.63-14.62H48.47A7.42,7.42,0,0,1,41,145.52Z"/><path class="cls-3" d="M46.6,137.9a5.75,5.75,0,1,0-5.75,5.75A5.75,5.75,0,0,0,46.6,137.9Zm-8.75,0a3,3,0,1,1,3,3A3,3,0,0,1,37.85,137.9Z"/><path class="cls-3" d="M154.92,63.57a7.67,7.67,0,1,0,7.68,7.66A7.66,7.66,0,0,0,154.92,63.57Z"/><path class="cls-4" d="M156.6,85.9a1.67,1.67,0,1,0,1.66,1.67A1.68,1.68,0,0,0,156.6,85.9Z"/><circle class="cls-3" cx="148.17" cy="95.57" r="4.75"/><circle class="cls-4" cx="133.67" cy="101.9" r="3.75"/><path class="cls-2" d="M122,83c-2.75-3.74-6.41-1.92-8.27,1.45-.19-.23-.36-.46-.56-.68h0c2.61-2.62,4.88-8,1-11.31s-7.36,1-7.36,1c-.54-1.08-.83-1.73-.83-1.73h0a41.13,41.13,0,0,0,2.45-14.08c0-21.78-16.62-39.43-37.12-39.43S34.22,35.93,34.22,57.71,50.85,97.15,71.35,97.15a35.68,35.68,0,0,0,23.62-9c-5.5,6-1,14.26,4.75,10.88a22.65,22.65,0,0,0,5-4.37c.23.29.46.59.71.88-2.32,2.87-3.79,5.31-1.08,8.06,2.18,2.22,5,1.14,7.76-1.92a6.3,6.3,0,0,0,2.95.85c6.54,0,10.45-6.63,5.33-11.78C120.43,90.74,124.78,86.78,122,83Z"/><path class="cls-4" d="M98.72,66.88a9.18,9.18,0,0,1,1.06.05,32.51,32.51,0,0,0,1.32-9.22A32,32,0,0,0,93,36.23h0a51.2,51.2,0,0,1-5.72,13.17,4.75,4.75,0,0,1-1.91,9.1,4.7,4.7,0,0,1-3.55-1.59A44.45,44.45,0,0,1,65.47,68.76C53.38,74.37,46,72,45.66,71.87c4.85,10.08,14.73,17,26.11,17a27.83,27.83,0,0,0,14.39-4,13.38,13.38,0,0,1,12.56-18ZM74.35,80.25A5.75,5.75,0,1,1,80.1,74.5,5.74,5.74,0,0,1,74.35,80.25Z"/><path class="cls-3" d="M65.47,68.76A44.45,44.45,0,0,0,81.8,56.93a4.75,4.75,0,0,0,8.3-3.15,4.78,4.78,0,0,0-2.84-4.36A51.2,51.2,0,0,0,93,36.25,61.28,61.28,0,0,1,58.7,56.12h0a5.6,5.6,0,0,1,.21,1.59,6.43,6.43,0,0,1-6.43,6.44A6.35,6.35,0,0,1,47.69,62a11.28,11.28,0,0,0-2,9.84v0h0C46,72,53.38,74.37,65.47,68.76Z"/><path class="cls-3" d="M74.35,68.76A5.75,5.75,0,1,0,80.1,74.5,5.74,5.74,0,0,0,74.35,68.76Z"/><circle class="cls-5" cx="65.47" cy="33.78" r="4"/><path class="cls-6" d="M47.69,62A6.33,6.33,0,0,1,46,57.71a6.43,6.43,0,0,1,12.66-1.59h0A61.28,61.28,0,0,0,93,36.25h0a28.41,28.41,0,0,0-21.22-9.66c-16.18,0-29.32,13.94-29.32,31.14a32.57,32.57,0,0,0,3.2,14.14A11.28,11.28,0,0,1,47.69,62ZM65.47,29.78a4,4,0,1,1-4,4A4,4,0,0,1,65.47,29.78Z"/><path class="cls-7" d="M52.47,51.28A6.43,6.43,0,0,0,46,57.71a6.47,6.47,0,0,0,6.44,6.44,6.43,6.43,0,0,0,6.43-6.44,5.6,5.6,0,0,0-.21-1.59A6.42,6.42,0,0,0,52.47,51.28Z"/><text class="cls-8" transform="translate(26 162.15)">Science Association of Computer College </text></svg>